<svg xmlns="http://www.w3.org/2000/svg" viewBox="0 0 144 144" enable-background="new 0 0 144 144"><path fill="#fff" d="M80.8 4.5c1.1 1.6 2.7 3.1 3.3 4.9 2.6 7.3 5.1 14.7 7.2 22.2 2.2 7.5 2 14.9-2.3 21.9 8.1-5.2 16.4-4.3 24.9-1.6 6.3 2.1 12.7 4.1 19 6.1 2.4.8 4.7 1.7 5.2 4.6.5 2.8-1.4 4.4-3.3 5.8-6.3 4.6-12.6 9.2-19 13.6s-13.4 6.4-21.4 4.5c8.3 7 9.1 16.2 8.9 25.9v18.9c-.1 4.5-3.9 6.6-7.6 4.1-7.9-5.5-15.6-11.1-23.1-17.1-5.1-4.1-7.7-9.9-8.2-16.8-4.1 11-13.6 14.4-23.4 17.3-5.2 1.5-10.2 3.6-15.5 4.9-1.9.5-4.9.2-6.1-1-1.2-1.2-1.4-4.2-.8-6.1 2.2-7.7 4.8-15.3 7.4-22.8 2.3-6.8 6.7-11.9 13.2-15.2-.5-.5-.6-.9-.9-.9-8.1-1.3-13.8-6.1-18.4-12.6-4.6-6.5-9.5-12.9-14.2-19.4v-3.4c1.6-2.6 4-3.3 6.9-3.3 6.2.1 12.4.1 18.6 0 9.1-.1 17.7 1.2 24.4 9.1.1-.9.2-1.3.1-1.7-1.6-6.7 0-12.9 3.8-18.3 5.5-8.1 11.5-15.8 17.3-23.7 1.2.1 2.6.1 4 .1zm-13.8 54.8c.3 2.1.3 3.6.8 4.8.4 1 1.3 2.2 2.3 2.5.6.2 2.1-.8 2.6-1.7 2.3-4 3.4-8.4 2.2-12.9-.3-1.1-1.5-2-2.3-3-1 .8-2.5 1.4-2.9 2.4-1.3 2.8-2 5.7-2.7 7.9zm14.5 34c-.8-5.3-2.7-9.7-6.7-12.8-.7-.6-2.2-.8-3-.5-.6.2-1.1 1.7-1.1 2.6.4 5 2.6 9.3 6.5 12.5.7.6 2.2.8 3 .5.7-.3.9-1.6 1.3-2.3zm-29.1-1.5c4.3-.1 12.1-7.8 12.1-11.6 0-2.2-1.4-2.7-3.2-2.1-5.1 1.9-8.7 5.5-10.6 10.6-.7 1.9.1 3.1 1.7 3.1zm7.6-20c.6-.3 2-.6 2.5-1.4.4-.6-.2-2.2-.9-2.9-3.2-3.8-7.4-5.8-12.3-6.2-.9-.1-2.5.6-2.8 1.3-.3.7.2 2.2.8 3 3.2 3.6 7.3 5.5 12.7 6.2zm21.4 4c3.7-1.2 7-2.2 10.2-3.5.8-.3 1.9-1.9 1.7-2.5-.3-.9-1.6-2.2-2.5-2.2-3.3-.1-6.8-.2-9.9.7-2 .6-3.6 2.8-5.4 4.2 1.9 1.2 3.9 2.2 5.9 3.3z"/></svg>